<svg width="18" height="18" viewBox="0 0 18 18" fill="none" xmlns="http://www.w3.org/2000/svg">
<g id="check-mark" clip-path="url(#clip0_2_228)">
<path id="Vector" d="M14.4 0H3.6C1.61196 0 0 1.61196 0 3.6V14.4C0 16.388 1.61196 18 3.6 18H14.4C16.388 18 18 16.388 18 14.4V3.6C18 1.61196 16.388 0 14.4 0ZM14.608 7.32983L9.03906 12.898C8.73153 13.2063 8.32902 13.3594 7.92613 13.3594C7.52362 13.3594 7.12034 13.2063 6.81281 12.898L3.39166 9.47719C2.77736 8.86289 2.77736 7.86562 3.39166 7.25055C4.00711 6.63549 5.00362 6.63549 5.61906 7.25055L7.92575 9.55723L12.3809 5.10204C12.9956 4.48736 13.9929 4.48736 14.6076 5.10204C15.2234 5.71711 15.2234 6.71438 14.608 7.32983Z" fill="#485982"/>
</g>
<defs>
<clipPath id="clip0_2_228">
<rect width="18" height="18" fill="white"/>
</clipPath>
</defs>
</svg>
