<svg width="160" height="30" viewBox="0 0 160 30" fill="none" xmlns="http://www.w3.org/2000/svg">
<g id="Logo">
<path id="Vector" d="M14.1449 1.23047L13.2531 3.2666C12.7923 3.29461 12.333 3.35285 11.8781 3.44063L10.5139 1.67906L9.04354 2.17898L9.03621 4.4202C8.41336 4.74035 7.81646 5.12742 7.25262 5.57918L5.17459 4.64355L4.1107 5.77518L5.17453 7.79297C4.83164 8.28199 4.53439 8.79328 4.28285 9.32191L2.00133 9.38414L1.53809 10.8654L3.38016 12.2223C3.29197 12.7719 3.24891 13.3273 3.24645 13.8831L1.20117 14.9194L1.41539 16.4575L3.66029 16.897C3.79412 17.3647 3.95953 17.8243 4.15834 18.2739L2.67891 20.1105L3.50467 21.4252L5.80447 20.8869C5.9492 21.0565 6.09961 21.2242 6.2567 21.3867C6.58734 21.7286 6.93434 22.0433 7.29498 22.3315L6.8482 24.635L8.19223 25.4114L9.94816 23.8824C10.4524 24.0853 10.9697 24.2474 11.4954 24.3694L12.0686 26.6198L13.6158 26.7462L14.546 24.6239C15.1887 24.5852 15.8294 24.4891 16.4594 24.3346L17.9371 26.0467L19.3781 25.4699L19.3359 24.6019L15.9723 22.0513C14.9931 22.2989 13.9777 22.3652 12.9803 22.2527C11.1197 22.0429 9.3317 21.2027 7.9285 19.7515C4.72119 16.4343 4.81289 11.1576 8.12994 7.95041C9.73658 6.39691 11.8032 5.60883 13.8721 5.5865C16.0747 5.56272 18.2792 6.40658 19.9329 8.11699C22.6245 10.9009 22.9913 15.0888 21.0792 18.2593L22.9524 19.6802C23.1866 19.3122 23.3974 18.9331 23.5823 18.5449L25.8472 18.4826L26.3105 17.0014L24.4813 15.6537C24.57 15.0996 24.6139 14.5384 24.6149 13.9783L26.6474 12.9456L26.4333 11.4075L24.1903 10.968C24.003 10.3239 23.7541 9.69293 23.4432 9.08572L24.7798 7.23451L23.8862 5.96555L21.6854 6.60457C21.6578 6.57527 21.6309 6.54557 21.6029 6.51668C21.2515 6.15311 20.8805 5.82 20.4933 5.51684L20.9145 3.34154L19.5703 2.56523L17.9004 4.01918C17.3598 3.80162 16.8046 3.63229 16.2414 3.50648L15.694 1.3568L14.1449 1.23047ZM10.7373 10.2246C10.1312 10.2315 9.53045 10.3804 8.97949 10.6512L11.6291 12.6618C12.4304 13.2697 12.6577 14.4251 12.0428 15.2362C11.4277 16.0477 10.2465 16.1697 9.43359 15.5531L6.78586 13.5444C6.51475 14.9971 7.02814 16.5363 8.28551 17.4903C9.41315 18.3456 10.8604 18.5057 12.107 18.0579L12.3871 17.9572L12.6232 18.1366L20.5445 24.1463L20.7806 24.3257L20.7605 24.6223C20.6646 25.9436 21.2052 27.2948 22.3334 28.1507C23.5908 29.1046 25.2129 29.1837 26.5392 28.5315L23.8916 26.5229C23.0787 25.9062 22.879 24.7355 23.4943 23.9247C24.1096 23.1137 25.2836 23.022 26.0852 23.6298L28.7329 25.6386C29.0034 24.1864 28.4921 22.6464 27.2351 21.6926C26.1035 20.8338 24.6677 20.6636 23.4284 21.1048L23.15 21.2037L22.9139 21.0242L14.9926 15.0147L14.7565 14.8352L14.7766 14.5405C14.8675 13.2288 14.3167 11.8924 13.1854 11.034C12.4504 10.4764 11.5904 10.2149 10.7374 10.2247L10.7373 10.2246ZM13.2898 15.5127L22.8919 22.7985L22.2308 23.6719L12.627 16.3843L13.2898 15.5127Z" fill="#FAFF00"/>
<path id="Vector_2" d="M38.3977 14H35.375L39.3011 2.36364H43.0455L46.9716 14H43.9489L41.2159 5.29545H41.125L38.3977 14ZM37.9943 9.42045H44.3125V11.5568H37.9943V9.42045ZM48.2244 14V2.36364H51.0369V11.7159H55.8778V14H48.2244ZM57.3338 14V2.36364H62.1406C63.0118 2.36364 63.7637 2.53409 64.3963 2.875C65.0327 3.21212 65.5232 3.68371 65.8679 4.28977C66.2126 4.89205 66.3849 5.5928 66.3849 6.39205C66.3849 7.19508 66.2088 7.89773 65.8565 8.5C65.508 9.09848 65.0099 9.5625 64.3622 9.89205C63.7145 10.2216 62.9455 10.3864 62.0554 10.3864H59.0895V8.17045H61.5327C61.9569 8.17045 62.3111 8.09659 62.5952 7.94886C62.883 7.80114 63.1009 7.5947 63.2486 7.32955C63.3963 7.06061 63.4702 6.74811 63.4702 6.39205C63.4702 6.0322 63.3963 5.72159 63.2486 5.46023C63.1009 5.19508 62.883 4.99053 62.5952 4.84659C62.3073 4.70265 61.9531 4.63068 61.5327 4.63068H60.1463V14H57.3338ZM67.7713 14V2.36364H70.5838V7.03409H75.169V2.36364H77.9759V14H75.169V9.32386H70.5838V14H67.7713ZM82.2571 14H79.2344L83.1605 2.36364H86.9048L90.831 14H87.8082L85.0753 5.29545H84.9844L82.2571 14ZM81.8537 9.42045H88.1719V11.5568H81.8537V9.42045Z" fill="#F8F8F8"/>
<path id="Vector_3" d="M37.7607 27H35.3047L38.4947 17.5455H41.5369L44.7269 27H42.271L40.0504 19.9276H39.9766L37.7607 27ZM37.4329 23.2791H42.5664V25.0149H37.4329V23.2791ZM45.7449 27V17.5455H49.6504C50.3583 17.5455 50.9692 17.6839 51.4831 17.9609C52.0002 18.2348 52.3987 18.618 52.6788 19.1104C52.9589 19.5998 53.0989 20.1692 53.0989 20.8185C53.0989 21.471 52.9558 22.0419 52.6696 22.5312C52.3864 23.0175 51.9817 23.3945 51.4554 23.6623C50.9292 23.93 50.3044 24.0639 49.5811 24.0639H47.1713V22.2635H49.1564C49.5011 22.2635 49.7889 22.2035 50.0197 22.0835C50.2536 21.9634 50.4306 21.7957 50.5506 21.5803C50.6706 21.3617 50.7306 21.1078 50.7306 20.8185C50.7306 20.5262 50.6706 20.2738 50.5506 20.0614C50.4306 19.846 50.2536 19.6798 50.0197 19.5629C49.7858 19.4459 49.498 19.3874 49.1564 19.3874H48.03V27H45.7449ZM54.2253 27V17.5455H58.1309C58.8387 17.5455 59.4496 17.6839 59.9636 17.9609C60.4806 18.2348 60.8792 18.618 61.1593 19.1104C61.4393 19.5998 61.5794 20.1692 61.5794 20.8185C61.5794 21.471 61.4363 22.0419 61.15 22.5312C60.8669 23.0175 60.4622 23.3945 59.9359 23.6623C59.4096 23.93 58.7849 24.0639 58.0616 24.0639H55.6518V22.2635H57.6369C57.9816 22.2635 58.2694 22.2035 58.5002 22.0835C58.7341 21.9634 58.911 21.7957 59.0311 21.5803C59.1511 21.3617 59.2111 21.1078 59.2111 20.8185C59.2111 20.5262 59.1511 20.2738 59.0311 20.0614C58.911 19.846 58.7341 19.6798 58.5002 19.5629C58.2663 19.4459 57.9785 19.3874 57.6369 19.3874H56.5105V27H54.2253ZM62.7058 27V17.5455H64.9909V25.1442H68.9242V27H62.7058ZM72.3923 17.5455V27H70.1072V17.5455H72.3923ZM75.872 27H73.416L76.606 17.5455H79.6483L82.8382 27H80.3823L78.1618 19.9276H78.0879L75.872 27ZM75.5442 23.2791H80.6777V25.0149H75.5442V23.2791ZM91.9027 17.5455V27H89.9638L86.2013 21.5433H86.1413V27H83.8562V17.5455H85.8228L89.5437 22.9929H89.6222V17.5455H91.9027ZM101.922 20.9709H99.6134C99.5826 20.7339 99.5195 20.52 99.4241 20.3292C99.3287 20.1384 99.2025 19.9753 99.0455 19.8398C98.8886 19.7044 98.7024 19.6013 98.4869 19.5305C98.2746 19.4567 98.0392 19.4197 97.7806 19.4197C97.3221 19.4197 96.9266 19.5321 96.5942 19.7567C96.2649 19.9814 96.011 20.3061 95.8325 20.7308C95.657 21.1555 95.5693 21.6695 95.5693 22.2727C95.5693 22.9006 95.6586 23.4268 95.8371 23.8516C96.0187 24.2732 96.2726 24.5917 96.5988 24.8072C96.9281 25.0195 97.3174 25.1257 97.7668 25.1257C98.0191 25.1257 98.2484 25.0934 98.4546 25.0288C98.6639 24.9641 98.847 24.8703 99.004 24.7472C99.164 24.621 99.2948 24.4686 99.3964 24.2901C99.501 24.1085 99.5734 23.9039 99.6134 23.6761L101.922 23.69C101.882 24.1085 101.76 24.521 101.557 24.9272C101.357 25.3335 101.081 25.7043 100.731 26.0398C100.38 26.3722 99.9519 26.6368 99.4472 26.8338C98.9455 27.0308 98.37 27.1293 97.7206 27.1293C96.865 27.1293 96.0987 26.9415 95.4216 26.5661C94.7476 26.1875 94.2152 25.6366 93.8243 24.9134C93.4334 24.1901 93.238 23.3099 93.238 22.2727C93.238 21.2325 93.4365 20.3507 93.8335 19.6275C94.2306 18.9042 94.7676 18.3549 95.4447 17.9794C96.1218 17.6039 96.8804 17.4162 97.7206 17.4162C98.2931 17.4162 98.8224 17.4962 99.3087 17.6562C99.795 17.8132 100.223 18.044 100.592 18.3487C100.961 18.6503 101.261 19.0212 101.492 19.4613C101.723 19.9014 101.866 20.4046 101.922 20.9709ZM103.229 27V17.5455H109.822V19.4013H105.514V21.3402H109.485V23.2006H105.514V25.1442H109.822V27H103.229ZM114.046 27V17.5455H117.951C118.659 17.5455 119.27 17.6732 119.784 17.9286C120.301 18.181 120.7 18.5442 120.98 19.0181C121.26 19.489 121.4 20.0476 121.4 20.6939C121.4 21.3494 121.257 21.9065 120.97 22.3651C120.684 22.8205 120.278 23.1683 119.752 23.4084C119.225 23.6454 118.602 23.7638 117.882 23.7638H115.412V21.9634H117.457C117.802 21.9634 118.09 21.9188 118.32 21.8295C118.554 21.7372 118.731 21.5987 118.851 21.4141C118.971 21.2263 119.031 20.9863 119.031 20.6939C119.031 20.4015 118.971 20.1599 118.851 19.9691C118.731 19.7752 118.554 19.6306 118.32 19.5352C118.087 19.4367 117.799 19.3874 117.457 19.3874H116.331V27H114.046ZM119.368 22.679L121.723 27H119.23L116.922 22.679H119.368ZM122.653 27V17.5455H129.245V19.4013H124.938V21.3402H128.908V23.2006H124.938V25.1442H129.245V27H122.653ZM130.676 27V17.5455H134.582C135.29 17.5455 135.901 17.6839 136.415 17.9609C136.932 18.2348 137.33 18.618 137.61 19.1104C137.891 19.5998 138.031 20.1692 138.031 20.8185C138.031 21.471 137.887 22.0419 137.601 22.5312C137.318 23.0175 136.913 23.3945 136.387 23.6623C135.861 23.93 135.236 24.0639 134.513 24.0639H132.103V22.2635H134.088C134.433 22.2635 134.721 22.2035 134.951 22.0835C135.185 21.9634 135.362 21.7957 135.482 21.5803C135.602 21.3617 135.662 21.1078 135.662 20.8185C135.662 20.5262 135.602 20.2738 135.482 20.0614C135.362 19.846 135.185 19.6798 134.951 19.5629C134.717 19.4459 134.43 19.3874 134.088 19.3874H132.962V27H130.676ZM140.059 27H137.604L140.794 17.5455H143.836L147.026 27H144.57L142.349 19.9276H142.275L140.059 27ZM139.732 23.2791H144.865V25.0149H139.732V23.2791ZM150.329 17.5455V27H148.044V17.5455H150.329ZM151.763 27V17.5455H155.669C156.377 17.5455 156.988 17.6732 157.502 17.9286C158.019 18.181 158.417 18.5442 158.697 19.0181C158.977 19.489 159.117 20.0476 159.117 20.6939C159.117 21.3494 158.974 21.9065 158.688 22.3651C158.402 22.8205 157.996 23.1683 157.469 23.4084C156.943 23.6454 156.32 23.7638 155.6 23.7638H153.13V21.9634H155.175C155.52 21.9634 155.807 21.9188 156.038 21.8295C156.272 21.7372 156.449 21.5987 156.569 21.4141C156.689 21.2263 156.749 20.9863 156.749 20.6939C156.749 20.4015 156.689 20.1599 156.569 19.9691C156.449 19.7752 156.272 19.6306 156.038 19.5352C155.804 19.4367 155.517 19.3874 155.175 19.3874H154.049V27H151.763ZM157.086 22.679L159.441 27H156.948L154.639 22.679H157.086Z" fill="#FAFF00"/>
</g>
</svg>
