<svg width="18" height="18" viewBox="0 0 18 18" fill="none" xmlns="http://www.w3.org/2000/svg">
<g id="Settings icon">
<g clip-path="url(#clip0_7_241)">
<g id="Group">
<g id="Group_2">
<path id="Vector" d="M16.02 7.47C15.84 6.66 15.48 5.85 15.03 5.13L15.93 3.24L14.67 1.98L12.78 2.88C12.06 2.43 11.34 2.16 10.53 1.98L9.9 0H8.1L7.38 1.98C6.57 2.16 5.85 2.52 5.13 2.97L3.24 2.07L1.98 3.24L2.88 5.13C2.43 5.85 2.16 6.57 1.98 7.38L0 8.1V9.9L1.98 10.62C2.16 11.43 2.52 12.24 2.88 12.87L1.98 14.76L3.24 16.02L5.13 15.12C5.85 15.57 6.57 15.93 7.38 16.11L8.1 18H9.9L10.62 16.02C10.89 15.93 11.25 15.84 11.52 15.75L10.08 14.31C6.66 14.94 3.6 12.42 3.6 9C3.6 6.03 6.03 3.6 9 3.6C12.33 3.6 14.85 6.57 14.31 9.72L15.84 11.25C15.93 10.98 16.02 10.8 16.02 10.53L18 9.9V8.1L16.02 7.47Z" fill="#344265"/>
</g>
</g>
<g id="Group_3">
<g id="Group_4">
<path id="Vector_2" d="M17.6397 15.6602L12.3297 10.3502C13.5897 7.56016 10.9797 4.59016 8.09968 5.40016L9.71968 7.02016C10.4397 7.74016 10.4397 8.91016 9.71968 9.54016C9.08968 10.2602 7.82968 10.2602 7.19968 9.54016L5.57968 8.01016C4.76968 10.5302 7.37968 13.4102 10.3497 12.2402L15.6597 17.5502C16.1997 18.0902 17.0097 18.0902 17.5497 17.5502C18.0897 17.1002 18.0897 16.2002 17.6397 15.6602Z" fill="#344265"/>
</g>
</g>
</g>
</g>
<defs>
<clipPath id="clip0_7_241">
<rect width="18" height="18" rx="9" fill="white"/>
</clipPath>
</defs>
</svg>
