<svg width="18" height="18" viewBox="0 0 18 18" fill="none" xmlns="http://www.w3.org/2000/svg">
<g id="basic / phone">
<path id="phone" d="M16.0641 16.5C8.06566 16.5113 1.99536 10.3682 2.00392 2.43982C2.00392 1.92206 2.42365 1.49997 2.94142 1.49997H5.41581C5.88041 1.49997 6.27509 1.84134 6.34331 2.3009C6.50682 3.40234 6.8275 4.47463 7.29561 5.485L7.39195 5.69294C7.5259 5.98207 7.43511 6.3256 7.17579 6.51079C6.4095 7.05802 6.11665 8.15955 6.71362 9.01905C7.46276 10.0976 8.40708 11.0418 9.48541 11.7905C10.3449 12.3874 11.4462 12.0945 11.9934 11.3284C12.1788 11.0689 12.5225 10.9781 12.8118 11.1121L13.0188 11.208C14.0292 11.6761 15.1016 11.9968 16.2031 12.1602C16.6627 12.2284 17.0039 12.6231 17.0039 13.0877V15.5625C17.0039 16.0802 16.5832 16.5 16.0654 16.5L16.0641 16.5Z" fill="white"/>
</g>
</svg>
