<?xml version="1.0" encoding="utf-8"?><svg viewBox="0 0 128 128" xmlns="http://www.w3.org/2000/svg" xmlns:xlink="http://www.w3.org/1999/xlink"><style>:root>svg{display:none}:root>svg:target{display:block}</style><svg fill="none" viewBox="0 0 25 21" id="about_me--design" xmlns="http://www.w3.org/2000/svg"><path d="M23.387 0H1.613A1.615 1.615 0 000 1.613v13.71a1.615 1.615 0 001.613 1.613h8.311l-.537 1.612H8.065a.403.403 0 00-.404.404v.806H4.032a.403.403 0 100 .806h17.742a.403.403 0 000-.806H17.34v-.806a.403.403 0 00-.403-.404h-1.323l-.537-1.612h8.311A1.616 1.616 0 0025 15.323V1.613A1.615 1.615 0 0023.387 0zm-6.855 19.355v.403H8.468v-.403h8.064zm-6.295-.807l.538-1.612h3.45l.538 1.612h-4.526zm13.957-3.225a.807.807 0 01-.807.806H1.613a.807.807 0 01-.807-.806v-.807h23.387v.807zM6.837 10.08l-.152 3.629h-.47l-.15-3.63h.772zm-.717-.807l.27-1.613h.122l.27 1.613H6.12zm.33-2.42c-.436 0-.806-.553-.806-1.209 0-.414.423-1.015.806-1.439.345.383.807.996.807 1.44 0 .655-.37 1.209-.806 1.209zm4.389-.806l.047.096v.308H9.274v-.308l.048-.096h1.518zm-1.115-.806l.356-.711.356.71h-.712zm1.162 2.016v6.401c0 .017.001.034.004.05H9.27a.417.417 0 00.003-.05v-6.4h1.613zm3.63-1.613h1.209v.807h-.403a.403.403 0 100 .806h.403v.807h-1.21a.403.403 0 000 .806h1.21v.806h-.403a.403.403 0 100 .807h.403v.806h-1.21a.403.403 0 000 .807h1.21v1.613h-2.823V4.032h2.823v.807h-1.21a.403.403 0 000 .806zm4.838 4.839v3.175c0 .017.001.034.003.05h-1.62a.405.405 0 00.004-.05v-3.175h1.613zm-1.613-.807V9.37l.806-1.612.807 1.612v.308h-1.613zm6.451 4.033h-4.035a.425.425 0 00.003-.05V9.273a.41.41 0 00-.042-.18l-1.21-2.42a.404.404 0 00-.721 0l-1.21 2.42a.406.406 0 00-.043.18v4.385c0 .017.002.034.004.05h-.407V3.63a.403.403 0 00-.403-.403H12.5a.403.403 0 00-.403.403v10.08h-.407a.405.405 0 00.004-.05V6.05a.406.406 0 00-.043-.181l-1.21-2.42a.403.403 0 00-.721 0l-1.21 2.42a.407.407 0 00-.042.18v7.611a.42.42 0 00.003.05h-.978l.168-4.015v-.04a.407.407 0 00-.005-.042V9.61l-.373-2.239c.468-.353.782-.995.782-1.727 0-1.036-1.202-2.184-1.339-2.311a.404.404 0 00-.55 0C6.04 3.46 4.84 4.609 4.84 5.645c0 .732.313 1.374.781 1.727l-.373 2.239a.404.404 0 00-.005.043v.04l.168 4.016H.806V1.613a.807.807 0 01.807-.807h21.774a.807.807 0 01.806.807V13.71z" fill="#000"/><path d="M4.436 14.92h-2.42a.403.403 0 000 .806h2.42a.403.403 0 000-.807zM6.048 14.92h-.403a.403.403 0 000 .806h.403a.403.403 0 000-.807zM10.08 7.661a.403.403 0 00-.403.403V12.5a.403.403 0 00.807 0V8.064a.403.403 0 00-.403-.403zM18.548 10.887a.404.404 0 00-.403.403v1.21a.403.403 0 00.807 0v-1.21a.403.403 0 00-.404-.403zM2.016 2.42h3.226a.403.403 0 000-.807H2.016a.403.403 0 100 .806zM2.016 3.63h.807a.403.403 0 100-.807h-.807a.403.403 0 100 .806zM21.37 12.903h1.614a.404.404 0 000-.806H21.37a.403.403 0 000 .806zM22.58 11.694h.404a.403.403 0 100-.807h-.403a.404.404 0 000 .806z" fill="#000"/></svg><svg fill="none" viewBox="0 0 14 25" id="about_me--mobile_dev" xmlns="http://www.w3.org/2000/svg"><path d="M11.719 0H1.563A1.565 1.565 0 000 1.563v21.093a1.565 1.565 0 001.563 1.563h10.156a1.565 1.565 0 001.562-1.563V1.563A1.564 1.564 0 0011.72 0zm-3.25.781l-.22.781H4.993l-.196-.78H8.47zM12.5 22.656a.783.783 0 01-.781.782H1.563a.783.783 0 01-.782-.782V1.563A.782.782 0 011.562.78h2.43l.317 1.267a.39.39 0 00.378.296h3.858a.39.39 0 00.376-.285L9.28.781h2.438a.782.782 0 01.781.781v21.094z" fill="#000"/><path d="M4.688 21.875H1.953a.39.39 0 000 .781h2.734a.39.39 0 100-.781zM6.25 21.875h-.39a.39.39 0 000 .781h.39a.39.39 0 100-.781zM8.013 9.821a.39.39 0 00-.535.134l-2.344 3.906a.39.39 0 10.67.402l2.343-3.906a.391.391 0 00-.134-.536zM9.29 9.912a.39.39 0 00-.61.488l1.367 1.71-1.368 1.708a.39.39 0 00.61.489l1.563-1.954a.391.391 0 000-.488L9.289 9.912zM3.992 14.307a.391.391 0 00.61-.489L3.235 12.11 4.602 10.4a.39.39 0 10-.61-.488l-1.563 1.953a.39.39 0 000 .489l1.563 1.953z" fill="#000"/></svg><svg fill="none" viewBox="0 0 25 24" id="about_me--web_development" xmlns="http://www.w3.org/2000/svg"><path d="M0 0v20.52h8.024v1.468H6.557v1.465h11.885v-1.465h-1.466V20.52H25V0H0zm15.511 21.988H9.489V20.52h6.022v1.468zm8.024-2.932H1.465v-2.934h22.07v2.934zm0-4.399H1.465V1.465h22.07v13.192z" fill="#000"/><path d="M9.958 5.413L8.922 4.378 5.24 8.06l3.683 3.684 1.036-1.036L7.31 8.06l2.648-2.648zM16.078 4.378l-1.036 1.035 2.648 2.648-2.648 2.648 1.036 1.036L19.76 8.06l-3.683-3.683zM12.632 3.644l-1.7 8.55 1.436.285 1.7-8.55-1.436-.285z" fill="#000"/></svg><svg viewBox="0 0 29 30" id="close--close" xmlns="http://www.w3.org/2000/svg"><path d="M17.157 14.523L28.449 3.231a1.876 1.876 0 000-2.657 1.877 1.877 0 00-2.657 0L14.5 11.867 3.208.574a1.877 1.877 0 00-2.657 0 1.876 1.876 0 000 2.657l11.292 11.292L.551 25.816a1.876 1.876 0 000 2.656c.366.366.848.55 1.328.55.481 0 .962-.183 1.329-.55L14.5 17.18l11.292 11.292a1.874 1.874 0 002.657 0 1.876 1.876 0 000-2.657L17.157 14.524z" fill="#fff"/></svg><svg viewBox="0 0 25 24" id="experience--courses" xmlns="http://www.w3.org/2000/svg"><path d="M2.93 14.954l-1.865-.411C.52 15.645 0 16.883 0 18.31c0 1.4.498 2.623 1.065 3.767l6.308-1.391v2.744l2.197-1.099 2.198 1.1v-2.744l6.258 1.391c.543-1.094 1.066-2.335 1.066-3.768 0-.247-.018-.493-.05-.733H25V0H2.93v14.954zm-1.03 5.44c-.19-.504-.435-1.304-.435-2.083 0-.78.245-1.58.436-2.084l5.472 1.207v1.753l-5.472 1.207zm8.403.667l-.733-.366-.732.366v-3.483h1.465v3.483zm6.888-.668l-5.423-1.205v-1.755l5.423-1.205c.19.504.436 1.304.436 2.082 0 .78-.245 1.58-.436 2.083zm6.344-18.928v14.648h-4.831c-.24-.734-.434-1.081-.678-1.571l-7.071 1.571h-2.77l-3.79-.836V1.465h19.14z"/><path d="M8.838 2.93h10.254v1.465H8.838V2.93zM5.86 8.79h16.21v1.464H5.86V8.789zM8.838 11.719h10.254v1.465H8.838v-1.465zM10.303 5.86h1.465v1.464h-1.465V5.86zM13.232 5.86h1.465v1.464h-1.465V5.86zM16.162 5.86h1.465v1.464h-1.465V5.86z"/></svg><svg viewBox="0 0 25 25" id="experience--designer" xmlns="http://www.w3.org/2000/svg"><path d="M20.265 19.146l-.65.433 1.53 2.296H3.855l1.823-2.734h9.924v-.782H5.47a.39.39 0 00-.325.174L2.8 22.05a.393.393 0 00-.066.217v1.172a.781.781 0 00.782.78h17.968a.781.781 0 00.782-.78v-1.172a.393.393 0 00-.066-.217l-1.935-2.903zm-16.75 4.291v-.78h17.97v.78H3.514zM20.313.781H4.688a1.175 1.175 0 00-1.172 1.172V12.11a1.175 1.175 0 001.171 1.172h5.47v1.563H8.593a.39.39 0 00-.39.39v1.563a.39.39 0 00.39.39h7.812a.391.391 0 00.39-.39v-1.563a.39.39 0 00-.39-.39h-1.562V13.28h5.469a1.175 1.175 0 001.171-1.172V1.953A1.176 1.176 0 0020.312.781zm-4.297 14.844v.781H8.984v-.781h7.032zm-5.078-.781V13.28h3.124v1.563h-3.124zm9.765-2.735a.39.39 0 01-.39.391H4.688a.39.39 0 01-.391-.39v-1.172h16.406v1.171zm0-1.953H4.297V1.953a.39.39 0 01.39-.39h15.625a.39.39 0 01.391.39v8.203z"/><path d="M18.36 11.328h.78v.781h-.78v-.78zM8.984 9.375h1.563a.39.39 0 00.39-.39v-.391h3.126v.39a.39.39 0 00.39.391h1.563a.39.39 0 00.39-.39V7.421a.39.39 0 00-.39-.39h-.391V4.686h.39a.39.39 0 00.391-.39V2.734a.39.39 0 00-.39-.39h-1.563a.39.39 0 00-.39.39v.391h-3.126v-.39a.39.39 0 00-.39-.391H8.984a.39.39 0 00-.39.39v1.563a.39.39 0 00.39.39h.391v2.344h-.39a.39.39 0 00-.391.39v1.563a.39.39 0 00.39.391zm6.641-.781h-.781v-.781h.781v.78zm-.781-5.469h.781v.781h-.781v-.781zm-5.469 0h.781v.781h-.781v-.781zm.781 1.563h.39a.39.39 0 00.392-.391v-.39h3.124v.39a.39.39 0 00.391.39h.39v2.344h-.39a.39.39 0 00-.39.39v.391h-3.126v-.39a.39.39 0 00-.39-.39h-.39V4.686zm-.781 3.125h.781v.78h-.781v-.78zM8.984 20.313h5.47v.78h-5.47v-.78zM23.387 14.39l-1.106-1.105a.386.386 0 00-.277-.113.38.38 0 00-.274.113l-5.25 5.25a.384.384 0 00-.093.152l-.278.829a.395.395 0 00.094.398l-.55.555.55.55.555-.55a.386.386 0 00.398.093l.828-.277a.384.384 0 00.153-.094l5.25-5.25a.39.39 0 000-.55zm-5.735 5.184l-.511.168-.215-.21.172-.512 3.8-3.801.555.55-3.8 3.805zm4.352-4.355l-.55-.551.55-.555.555.555-.555.55z"/></svg><svg viewBox="0 0 25 25" id="experience--developer" xmlns="http://www.w3.org/2000/svg"><path d="M22.5 3.75H11.25v.833H22.5V3.75zM18.333 5.417H11.25v.833h7.083v-.833zM18.333 7.083H11.25v.834h7.083v-.834zM22.5 2.083h-7.917v.834H22.5v-.834zM13.75 2.083h-.833v.834h.833v-.834zM12.917 16.667h-.834v.833h.834v-.833zM6.961 2.795l-.589-.59-.833.834a.417.417 0 000 .589l.833.833.59-.589-.54-.539.54-.538zM10.295 3.039l-.834-.834-.589.59.539.538-.539.54.59.588.833-.833a.417.417 0 000-.59zM7.938 1.951l-.834 2.5.79.264.834-2.5-.79-.264zM21.667 12.917V9.583h-.834v3.334H20V8.75h-.833v4.167h-.834v-2.084H17.5v2.084h-.833v-2.5h-.834v2.5H15V11.25h-.833v1.667h-.834v.833H22.5v-.833h-.833z"/><path d="M22.083 0H2.917a2.502 2.502 0 00-2.5 2.5V16.667a2.503 2.503 0 002.5 2.5h5.159L6.409 22.5H4.167a1.25 1.25 0 100 2.5h16.666a1.25 1.25 0 000-2.5h-2.242l-1.667-3.333h5.16a2.503 2.503 0 002.5-2.5V2.5a2.503 2.503 0 00-2.5-2.5zM1.25 5.862l.947 1.128c.08.094.196.149.32.149h1.275c.123 0 .24-.055.319-.149l.947-1.128.935.304.104 1.468c.008.123.07.236.17.308l1.032.75c.1.072.226.097.346.067l1.43-.355.579.795-.78 1.25a.416.416 0 00-.04.35l.394 1.213a.417.417 0 00.24.257l1.365.554v.983l-1.366.554a.414.414 0 00-.24.258L9.102 15h-2.4A3.923 3.923 0 001.25 9.884V5.862zm0 5.013A3.095 3.095 0 015.75 15h-4.5v-4.125zm19.583 12.458a.417.417 0 010 .834H4.167a.417.417 0 010-.834h16.666zM17.66 22.5H7.341l1.667-3.333h6.985l1.666 3.333zm6.091-5.833c0 .92-.746 1.666-1.667 1.666H2.917c-.92 0-1.667-.746-1.667-1.666v-.834h22.5v.834zm0-1.667H10.106l1.3-.527a.417.417 0 00.26-.386v-1.545a.417.417 0 00-.26-.387l-1.448-.585-.274-.844.826-1.325a.417.417 0 00-.017-.465l-.908-1.25a.417.417 0 00-.437-.16l-1.515.375-.716-.52-.11-1.554a.417.417 0 00-.287-.367l-1.469-.478a.42.42 0 00-.448.13L3.6 6.304h-.888L1.708 5.111a.42.42 0 00-.448-.128l-.01.003V2.5c0-.92.746-1.667 1.667-1.667h19.166c.92 0 1.667.747 1.667 1.667V15z"/></svg><svg viewBox="0 0 21 25" id="experience--university" xmlns="http://www.w3.org/2000/svg"><path d="M17.717 16.333l-1.467-.43-3.193-2.086v-.478a4.248 4.248 0 001.677-2.984.976.976 0 00.819-.961V8.08 6.401a.722.722 0 00.301-.59V4.29l2.203-.376a.77.77 0 00.648-.715.77.77 0 00-.542-.799L10.736.037a.777.777 0 00-.474 0L2.836 2.399a.77.77 0 00-.543.799.771.771 0 00.3.565v1.991h-.019a.76.76 0 00-.758.759V7.5l-.49 2.874a.815.815 0 00.804.952h1.658a.815.815 0 00.803-.952L4.101 7.5v-.988a.76.76 0 00-.758-.759h-.018V3.98l1.82.31V5.81c0 .241.118.456.301.589l.001 1.68v1.314c0 .484.355.887.819.961a4.25 4.25 0 001.675 2.983v.48l-3.192 2.085-1.466.43a3.724 3.724 0 00-2.676 3.575V21a.366.366 0 00.732 0v-1.092c0-1.32.885-2.5 2.15-2.872l1.367-.401 5.457 3.243a.37.37 0 00.374 0l5.458-3.243 1.366.4a3.01 3.01 0 012.15 2.873v3.537c0 .454-.37.823-.823.823h-1.614v-1.579a.366.366 0 10-.732 0v1.579H4.507v-1.579a.366.366 0 10-.733 0v1.579H2.162a.824.824 0 01-.823-.823v-.734a.366.366 0 00-.732 0v.734c0 .857.697 1.555 1.555 1.555h16.676c.858 0 1.555-.698 1.555-1.555v-3.537a3.724 3.724 0 00-2.676-3.575zm-13.93-5.739H2.13a.083.083 0 01-.082-.096l.443-2.6h.935l.443 2.6a.083.083 0 01-.082.096zM3.37 6.513v.653h-.82v-.653c0-.015.01-.027.025-.027h.769c.014 0 .026.012.026.027zM9.19 18.22l.146.224-3.739-2.221 2.373-1.55a7.692 7.692 0 001.22 3.547zm-.002-1.58a9.414 9.414 0 002.624 0c-.166.41-.372.805-.616 1.18l-.696 1.07-.696-1.07a6.994 6.994 0 01-.616-1.18zm2.622 1.58a7.69 7.69 0 001.22-3.547l2.373 1.55-3.739 2.221.146-.224zm2.142-11.684h.868v1.177h-.431a.438.438 0 01-.437-.437v-.74zM3.058 3.097L10.485.735a.048.048 0 01.029 0l7.427 2.362c.015.005.036.012.034.05-.003.038-.025.042-.04.044l-2.456.418-.922-.114a.366.366 0 00-.09.727l.655.081v1.502H5.878V4.302l3.79-.469a6.783 6.783 0 011.663 0l1.434.178a.366.366 0 00.09-.727l-1.434-.177a7.513 7.513 0 00-1.843 0L5.52 3.61 3.064 3.19c-.016-.002-.037-.006-.04-.044-.003-.038.018-.045.034-.05zm3.121 4.617V6.537h.87v.74a.438.438 0 01-.438.437h-.432zm.806 2.453a.567.567 0 00-.564-.532.242.242 0 01-.242-.241v-.948h.432a1.17 1.17 0 001.17-1.17v-.739h5.438v.74c0 .644.525 1.17 1.17 1.17h.432v.947a.242.242 0 01-.242.241.567.567 0 00-.564.532 3.527 3.527 0 01-3.515 3.298 3.527 3.527 0 01-3.515-3.298zm3.515 4.03c.651 0 1.27-.149 1.825-.414v.232c0 .627-.084 1.244-.247 1.84-.995.19-2.12.197-3.156 0a6.978 6.978 0 01-.247-1.84l-.002-.023v-.209a4.228 4.228 0 001.827.414z"/></svg><svg viewBox="0 0 128 128" id="skills--bootstrap"><path d="M27.235 13.885c-7.177 0-12.486 6.284-12.249 13.099.228 6.546-.068 15.026-2.203 21.94-2.14 6.936-5.76 11.319-11.673 11.883v6.387c5.913.563 9.533 4.947 11.673 11.883 2.135 6.914 2.43 15.394 2.203 21.94-.238 6.815 5.072 13.098 12.249 13.098h73.54c7.177 0 12.486-6.284 12.249-13.098-.228-6.546.068-15.026 2.202-21.94 2.14-6.935 5.751-11.319 11.664-11.883v-6.387c-5.913-.563-9.523-4.947-11.664-11.883-2.134-6.914-2.43-15.394-2.202-21.94.237-6.815-5.072-13.099-12.25-13.099zm58.114 61.686c0 9.384-7.002 15.073-18.621 15.073H45.306a.491.491 0 01-.491-.491V37.827a.491.491 0 01.491-.492h21.309c9.689 0 16.047 5.246 16.047 13.3 0 5.653-4.277 10.713-9.727 11.6v.296c7.418.813 12.414 5.948 12.414 13.04zM64.571 44.096H53.293v15.922h9.5c7.342 0 11.391-2.955 11.391-8.238 0-4.95-3.481-7.684-9.613-7.684zm-11.278 22.24v17.548h11.695c7.645 0 11.695-3.066 11.695-8.83 0-5.763-4.163-8.718-12.187-8.718z" fill="#7952b3"/></svg><svg viewBox="0 0 128 128" id="skills--css3"><path fill="#1572B6" d="M18.814 114.123L8.76 1.352h110.48l-10.064 112.754-45.243 12.543-45.119-12.526z"/><path fill="#33A9DC" d="M64.001 117.062l36.559-10.136 8.601-96.354h-45.16v106.49z"/><path fill="#fff" d="M64.001 51.429h18.302l1.264-14.163H64.001V23.435h34.682l-.332 3.711-3.4 38.114h-30.95V51.429z"/><path fill="#EBEBEB" d="M64.083 87.349l-.061.018-15.403-4.159-.985-11.031H33.752l1.937 21.717 28.331 7.863.063-.018v-14.39z"/><path fill="#fff" d="M81.127 64.675l-1.666 18.522-15.426 4.164v14.39l28.354-7.858.208-2.337 2.406-26.881H81.127z"/><path fill="#EBEBEB" d="M64.048 23.435v13.831H30.64l-.277-3.108-.63-7.012-.331-3.711h34.646zm-.047 27.996v13.831H48.792l-.277-3.108-.631-7.012-.33-3.711h16.447z"/></svg><svg viewBox="0 0 128 128" id="skills--figma"><path fill="#0acf83" d="M45.5 129c11.9 0 21.5-9.6 21.5-21.5V86H45.5C33.6 86 24 95.6 24 107.5S33.6 129 45.5 129zm0 0"/><path fill="#a259ff" d="M24 64.5C24 52.6 33.6 43 45.5 43H67v43H45.5C33.6 86 24 76.4 24 64.5zm0 0"/><path fill="#f24e1e" d="M24 21.5C24 9.6 33.6 0 45.5 0H67v43H45.5C33.6 43 24 33.4 24 21.5zm0 0"/><path fill="#ff7262" d="M67 0h21.5C100.4 0 110 9.6 110 21.5S100.4 43 88.5 43H67zm0 0"/><path fill="#1abcfe" d="M110 64.5c0 11.9-9.6 21.5-21.5 21.5S67 76.4 67 64.5 76.6 43 88.5 43 110 52.6 110 64.5zm0 0"/></svg><svg viewBox="0 0 128 128" id="skills--git"><path fill="#F34F29" d="M124.737 58.378L69.621 3.264c-3.172-3.174-8.32-3.174-11.497 0L46.68 14.71l14.518 14.518c3.375-1.139 7.243-.375 9.932 2.314 2.703 2.706 3.461 6.607 2.294 9.993l13.992 13.993c3.385-1.167 7.292-.413 9.994 2.295 3.78 3.777 3.78 9.9 0 13.679a9.673 9.673 0 01-13.683 0 9.677 9.677 0 01-2.105-10.521L68.574 47.933l-.002 34.341a9.708 9.708 0 012.559 1.828c3.778 3.777 3.778 9.898 0 13.683-3.779 3.777-9.904 3.777-13.679 0-3.778-3.784-3.778-9.905 0-13.683a9.65 9.65 0 013.167-2.11V47.333a9.581 9.581 0 01-3.167-2.111c-2.862-2.86-3.551-7.06-2.083-10.576L41.056 20.333 3.264 58.123a8.133 8.133 0 000 11.5l55.117 55.114c3.174 3.174 8.32 3.174 11.499 0l54.858-54.858a8.135 8.135 0 00-.001-11.501z"/></svg><svg viewBox="0 0 128 128" id="skills--gulp"><path fill-rule="evenodd" clip-rule="evenodd" fill="#EB4A4B" d="M36.965 35.459c.877 9.232 1.747 18.412 2.637 27.798 1.451-2.495 2.501-4.888 4.085-6.848 1.475-1.826 3.334-3.511 5.357-4.678 2.641-1.524 6.104-.089 6.96 2.614.23.725-.319 1.697-.511 2.556-.646-.341-1.479-.529-1.901-1.051-1.793-2.217-2.873-2.479-4.856-.563-3.699 3.576-5.779 8.056-6.573 13.091-.153.974.456 2.067.713 3.105 1.011-.348 2.185-.476 3.002-1.084 2.656-1.977 4.302-4.666 5.21-7.88.197-.696 1.265-1.145 1.933-1.708.32.658 1.05 1.433.897 1.954a373.814 373.814 0 01-4.536 14.429c-.162.484-1.051.725-1.604 1.079-.223-.636-.692-1.302-.617-1.901.168-1.358.605-2.683.91-3.927l-7.24 3.333c.405 4.622.825 9.807 1.323 14.985.382 3.954 1.029 4.978 4.923 5.728 4.544.875 9.173 1.434 13.792 1.774a60.391 60.391 0 0020.23-1.904c2.472-.664 3.458-2.29 3.635-4.717.162-2.235.524-4.456.775-6.685.493-4.391.972-8.783 1.476-13.358-1.667 1.056-2.978 2.238-4.511 2.739-1.116.365-2.524-.169-3.803-.303.245-1.174.23-2.497.796-3.487.922-1.618 2.224-3.021 3.364-4.515l-.491-.591c-.817.483-1.832.8-2.413 1.485-1.182 1.394-2.339 2.886-3.13 4.52-1.324 2.735-2.333 5.622-3.518 8.426-.515 1.216-.959 3.076-2.684 2.366-1.845-.761-.547-2.386-.114-3.542.689-1.844 1.599-3.606 2.215-4.962-1.746.208-3.516.459-5.294.614-.752.064-1.646-.348-2.261-.07-2.045.924-3.341.553-3.766-1.711-.947.615-1.749 1.448-2.694 1.672-1.147.273-2.703.452-3.543-.121-.673-.459-.918-2.184-.688-3.196.457-2.012 1.311-3.946 2.122-5.859.502-1.185 1.007-3.077 2.701-2.253 1.674.813.154 2.185-.232 3.286-.599 1.702-1.209 3.401-1.813 5.101l.96.58c.914-.794 2.053-1.441 2.693-2.415 1.048-1.592 1.681-3.452 2.673-5.086.411-.677 1.296-1.065 1.967-1.584.136.862.462 1.748.354 2.58-.107.841-.698 1.61-.981 2.442-.425 1.246-.768 2.52-1.2 3.969 2.043.078 2.918-.782 3.495-2.299 1.826-4.793 3.672-9.581 5.679-14.3.343-.808 1.509-1.264 2.296-1.884.091.974.525 2.078.216 2.899-1.645 4.349-3.492 8.62-5.228 12.935-.293.727-.387 1.534-.572 2.304 3.059-1.375 5.612-2.895 6.544-6.146.228-.79 1.162-1.377 1.771-2.058l1.416 1.5c.43-.362.824-.774 1.291-1.075 1.47-.947 3.053-1.782 4.603-.315 1.604 1.517.39 2.995-.448 4.307-.912 1.431-2.029 2.73-3.057 4.086 2.312-1.49 5.469-2.158 5.889-5.378 1.024-7.865 1.924-15.746 2.837-23.625.271-2.332.416-4.679.627-7.109-18.21 4.409-36.029 4.436-54.088-.069zm7.816 61.369c.877 2.317 2.209 4.593 2.558 7.011.737 5.147.924 10.372 1.446 15.554.076.755.565 1.792 1.175 2.124 8.98 4.88 18.047 5.726 27.209.389 1.367-.796 1.62-1.847 1.797-3.325.857-7.181-1.051-14.798 3.54-21.56-12.856 3.189-25.403 3.288-37.725-.193zm30.991-60.08c4.362-.421 8.671-1.445 12.985-2.291.813-.159 1.535-.778 2.299-1.185-1.007-.885-1.878-1.311-2.788-1.418-4.53-.535-9.076-.947-13.603-1.508-.684-.085-1.905-.929-1.854-1.083 1.321-3.98 1.256-8.485 4.254-11.839 3.789-4.24 7.617-8.443 11.416-12.648-2.826-3.04-2.864-3.044-5.425-.383-1.448 1.504-2.771 3.15-4.342 4.512-5.813 5.038-9.896 11.005-10.692 18.872-.183 1.805-1.174 2.457-3.069 2.485-6.256.091-12.519.263-18.761.674-3.093.203-6.148.997-9.221 1.523l-.028 1.149c1.923.593 3.809 1.372 5.773 1.749 10.944 2.098 21.991 2.458 33.056 1.391zM72.276 34c-2.477 2-4.524 2-6.501 0h6.501z"/></svg><svg viewBox="0 0 128 128" id="skills--html5"><path fill="#E44D26" d="M19.037 113.876L9.032 1.661h109.936l-10.016 112.198-45.019 12.48z"/><path fill="#F16529" d="M64 116.8l36.378-10.086 8.559-95.878H64z"/><path fill="#EBEBEB" d="M64 52.455H45.788L44.53 38.361H64V24.599H29.489l.33 3.692 3.382 37.927H64zm0 35.743l-.061.017-15.327-4.14-.979-10.975H33.816l1.928 21.609 28.193 7.826.063-.017z"/><path fill="#fff" d="M63.952 52.455v13.763h16.947l-1.597 17.849-15.35 4.143v14.319l28.215-7.82.207-2.325 3.234-36.233.335-3.696h-3.708zm0-27.856v13.762h33.244l.276-3.092.628-6.978.329-3.692z"/></svg><svg fill="none" viewBox="0 0 65 65" id="skills--js" xmlns="http://www.w3.org/2000/svg"><path d="M0 0h65v65H0V0z" fill="#F7DF1E"/><path d="M17.09 54.319l4.975-3.01c.96 1.7 1.833 3.14 3.927 3.14 2.007 0 3.272-.785 3.272-3.839V29.841h6.109v20.856c0 6.326-3.709 9.206-9.12 9.206-4.886 0-7.722-2.53-9.162-5.585M38.69 53.664l4.974-2.88c1.31 2.139 3.011 3.71 6.021 3.71 2.532 0 4.145-1.266 4.145-3.011 0-2.095-1.657-2.837-4.45-4.058l-1.527-.655c-4.407-1.876-7.33-4.232-7.33-9.206 0-4.581 3.49-8.072 8.944-8.072 3.884 0 6.676 1.353 8.683 4.887l-4.756 3.054c-1.047-1.876-2.181-2.618-3.926-2.618-1.79 0-2.924 1.135-2.924 2.618 0 1.833 1.135 2.575 3.752 3.709l1.527.654c5.193 2.226 8.116 4.494 8.116 9.6 0 5.497-4.32 8.508-10.123 8.508-5.672 0-9.337-2.706-11.125-6.24" fill="#000"/></svg><svg viewBox="0 0 128 128" id="skills--sass"><path fill-rule="evenodd" clip-rule="evenodd" fill="#CB6699" d="M1.219 56.156c0 .703.207 1.167.323 1.618.756 2.933 2.381 5.45 4.309 7.746 2.746 3.272 6.109 5.906 9.554 8.383 2.988 2.148 6.037 4.248 9.037 6.38.515.366 1.002.787 1.561 1.236-.481.26-.881.489-1.297.7-3.959 2.008-7.768 4.259-11.279 6.986-2.116 1.644-4.162 3.391-5.607 5.674-2.325 3.672-3.148 7.584-1.415 11.761.506 1.22 1.278 2.274 2.367 3.053.353.252.749.502 1.162.6 1.058.249 2.136.412 3.207.609l3.033-.002c3.354-.299 6.407-1.448 9.166-3.352 4.312-2.976 7.217-6.966 8.466-12.087.908-3.722.945-7.448-.125-11.153a11.696 11.696 0 00-.354-1.014c-.13-.333-.283-.657-.463-1.072l6.876-3.954.103.088c-.125.409-.258.817-.371 1.23-.817 2.984-1.36 6.02-1.165 9.117.208 3.3 1.129 6.389 3.061 9.146 1.562 2.23 5.284 2.313 6.944.075.589-.795 1.16-1.626 1.589-2.513 1.121-2.315 2.159-4.671 3.23-7.011l.187-.428c-.077 1.108-.167 2.081-.208 3.055-.064 1.521.025 3.033.545 4.48.445 1.238 1.202 2.163 2.62 2.326.97.111 1.743-.333 2.456-.896a10.384 10.384 0 002.691-3.199c1.901-3.491 3.853-6.961 5.576-10.54 1.864-3.871 3.494-7.855 5.225-11.792l.286-.698c.409 1.607.694 3.181 1.219 4.671.61 1.729 1.365 3.417 2.187 5.058.389.775.344 1.278-.195 1.928-2.256 2.72-4.473 5.473-6.692 8.223-.491.607-.98 1.225-1.389 1.888a3.701 3.701 0 00-.48 1.364 1.737 1.737 0 001.383 1.971 9.661 9.661 0 002.708.193c3.097-.228 5.909-1.315 8.395-3.157 3.221-2.386 4.255-5.642 3.475-9.501-.211-1.047-.584-2.065-.947-3.074-.163-.455-.174-.774.123-1.198 2.575-3.677 4.775-7.578 6.821-11.569.081-.157.164-.314.306-.482.663 3.45 1.661 6.775 3.449 9.792-.912.879-1.815 1.676-2.632 2.554-1.799 1.934-3.359 4.034-4.173 6.595-.35 1.104-.619 2.226-.463 3.405.242 1.831 1.742 3.021 3.543 2.604 3.854-.892 7.181-2.708 9.612-5.925 1.636-2.166 1.785-4.582 1.1-7.113-.188-.688-.411-1.365-.651-2.154.951-.295 1.878-.649 2.837-.868 4.979-1.136 9.904-.938 14.702.86 2.801 1.05 5.064 2.807 6.406 5.571 1.639 3.379.733 6.585-2.452 8.721-.297.199-.637.356-.883.605a.869.869 0 00-.205.67c.021.123.346.277.533.275 1.047-.008 1.896-.557 2.711-1.121 2.042-1.413 3.532-3.314 3.853-5.817l.063-.188-.077-1.63c-.031-.094.023-.187.016-.258-.434-3.645-2.381-6.472-5.213-8.688-3.28-2.565-7.153-3.621-11.249-3.788a25.401 25.401 0 00-9.765 1.503c-.897.325-1.786.71-2.688 1.073-.121-.219-.251-.429-.358-.646-.926-1.896-2.048-3.708-2.296-5.882-.176-1.544-.392-3.086-.025-4.613.353-1.469.813-2.913 1.246-4.362.223-.746.066-1.164-.646-1.5a2.854 2.854 0 00-.786-.258c-1.75-.254-3.476-.109-5.171.384-.6.175-1.036.511-1.169 1.175-.076.381-.231.746-.339 1.122-.443 1.563-.757 3.156-1.473 4.645-1.794 3.735-3.842 7.329-5.938 10.897-.227.385-.466.763-.752 1.23-.736-1.54-1.521-2.922-1.759-4.542-.269-1.832-.481-3.661-.025-5.479.339-1.356.782-2.687 1.19-4.025.193-.636.104-.97-.472-1.305-.291-.169-.62-.319-.948-.368a11.643 11.643 0 00-5.354.438c-.543.176-.828.527-.994 1.087-.488 1.652-.904 3.344-1.589 4.915-2.774 6.36-5.628 12.687-8.479 19.013-.595 1.321-1.292 2.596-1.963 3.882-.17.326-.418.613-.63.919-.17-.201-.236-.339-.235-.477.005-.813-.092-1.65.063-2.436a172.189 172.189 0 011.578-7.099c.47-1.946 1.017-3.874 1.538-5.807.175-.647.178-1.252-.287-1.796-.781-.911-2.413-1.111-3.381-.409l-.428.242.083-.69c.204-1.479.245-2.953-.161-4.41-.506-1.816-1.802-2.861-3.686-2.803-.878.027-1.8.177-2.613.497-3.419 1.34-6.048 3.713-8.286 6.568a2.592 2.592 0 01-.757.654c-2.893 1.604-5.795 3.188-8.696 4.778l-3.229 1.769c-.866-.826-1.653-1.683-2.546-2.41-2.727-2.224-5.498-4.393-8.244-6.592-2.434-1.949-4.792-3.979-6.596-6.56-1.342-1.92-2.207-4.021-2.29-6.395-.105-3.025.753-5.789 2.293-8.362 1.97-3.292 4.657-5.934 7.611-8.327 3.125-2.53 6.505-4.678 10.008-6.639 4.901-2.743 9.942-5.171 15.347-6.774 5.542-1.644 11.165-2.585 16.965-1.929 2.28.258 4.494.78 6.527 1.895 1.557.853 2.834 1.97 3.428 3.716.586 1.718.568 3.459.162 5.204-.825 3.534-2.76 6.447-5.195 9.05-3.994 4.267-8.866 7.172-14.351 9.091a39.478 39.478 0 01-9.765 2.083c-2.729.229-5.401-.013-7.985-.962-1.711-.629-3.201-1.591-4.399-2.987-.214-.25-.488-.521-.887-.287-.391.23-.46.602-.329.979.219.626.421 1.278.762 1.838.857 1.405 2.107 2.424 3.483 3.298 2.643 1.681 5.597 2.246 8.66 2.377 4.648.201 9.183-.493 13.654-1.74 6.383-1.78 11.933-4.924 16.384-9.884 3.706-4.13 6.353-8.791 6.92-14.419.277-2.747-.018-5.438-1.304-7.944-1.395-2.715-3.613-4.734-6.265-6.125C68.756 18.179 64.588 17 60.286 17h-4.31c-5.21 0-10.247 1.493-15.143 3.274-3.706 1.349-7.34 2.941-10.868 4.703-7.683 3.839-14.838 8.468-20.715 14.833-2.928 3.171-5.407 6.67-6.833 10.79a40.494 40.494 0 00-1.111 3.746m27.839 36.013c-.333 4.459-2.354 8.074-5.657 11.002-1.858 1.646-3.989 2.818-6.471 3.23-.9.149-1.821.185-2.694-.188-1.245-.532-1.524-1.637-1.548-2.814-.037-1.876.62-3.572 1.521-5.186 1.176-2.104 2.9-3.708 4.741-5.206 2.9-2.361 6.046-4.359 9.268-6.245l.243-.1c.498 1.84.735 3.657.597 5.507zM54.303 70.98c-.235 1.424-.529 2.849-.945 4.229-1.438 4.777-3.285 9.406-5.282 13.973-.369.845-.906 1.616-1.373 2.417a1.689 1.689 0 01-.283.334c-.578.571-1.126.541-1.418-.206-.34-.868-.549-1.797-.729-2.716-.121-.617-.092-1.265-.13-1.897.039-4.494 1.41-8.578 3.736-12.38.959-1.568 2.003-3.062 3.598-4.054a6.27 6.27 0 011.595-.706c.85-.239 1.372.154 1.231 1.006zm17.164 21.868l6.169-7.203c.257 2.675-4.29 8.015-6.169 7.203zm19.703-4.847c-.436.25-.911.43-1.358.661-.409.212-.544-.002-.556-.354a2.385 2.385 0 01.093-.721c.833-2.938 2.366-5.446 4.647-7.486l.16-.082c1.085 3.035-.169 6.368-2.986 7.982z"/></svg><svg viewBox="0 0 128 128" id="skills--webpack"><path fill="#8ed6fb" d="M117.29 98.1L66.24 127v-22.51L98 87l19.29 11.1zm3.5-3.16V34.55l-18.68 10.8v38.81l18.67 10.77zM10.71 98.1l51 28.88v-22.49L29.94 87zm-3.5-3.16V34.55l18.68 10.8v38.81zm2.19-64.3L61.76 1v21.76L28.21 41.21l-.27.15zm109.18 0L66.24 1v21.76L99.79 41.2l.27.15 18.54-10.71z"/><path fill="#1c78c0" d="M61.76 99.37L30.37 82.1V47.92L61.76 66zm4.48 0l31.39-17.25v-34.2L66.24 66zM32.5 44L64 26.66 95.5 44 64 62.16 32.5 44z"/></svg><svg viewBox="0 0 128 128" id="skills--wordpress"><path fill-rule="evenodd" clip-rule="evenodd" fill="#2196F3" d="M64.094 126.224c34.275-.052 62.021-27.933 62.021-62.325 0-33.833-27.618-61.697-60.613-62.286C30.85.995 1.894 29.113 1.885 63.21c-.01 35.079 27.612 63.064 62.209 63.014zM63.993 4.63c32.907-.011 59.126 26.725 59.116 60.28-.011 31.679-26.925 58.18-59.092 58.187-32.771.007-59.125-26.563-59.124-59.608.002-32.193 26.766-58.848 59.1-58.859zM39.157 35.896c.538 1.793-.968 2.417-2.569 2.542-1.685.13-3.369.257-5.325.406 6.456 19.234 12.815 38.183 19.325 57.573.464-.759.655-.973.739-1.223 3.574-10.682 7.168-21.357 10.651-32.069.318-.977.16-2.271-.188-3.275-1.843-5.32-4.051-10.524-5.667-15.908-1.105-3.686-2.571-6.071-6.928-5.644-.742.073-1.648-1.524-2.479-2.349 1.005-.6 2.003-1.704 3.017-1.719a849.593 849.593 0 0126.618.008c1.018.017 2.016 1.15 3.021 1.765-.88.804-1.639 2.01-2.668 2.321-1.651.498-3.482.404-5.458.58l19.349 57.56c2.931-9.736 5.658-18.676 8.31-27.639 2.366-8.001.956-15.473-3.322-22.52-1.286-2.119-2.866-4.175-3.595-6.486-.828-2.629-1.516-5.622-1.077-8.259.745-4.469 4.174-6.688 8.814-7.113C74.333.881 34.431 9.317 19.728 34.922c5.66-.261 11.064-.604 16.472-.678 1.022-.013 2.717.851 2.957 1.652zm10.117 77.971c-.118.345-.125.729-.218 1.302 10.943 3.034 21.675 2.815 32.659-.886l-16.78-45.96c-5.37 15.611-10.52 30.575-15.661 45.544zm-8.456-2.078l-25.281-69.35c-11.405 22.278-2.729 56.268 25.281 69.35zm76.428-44.562c.802-10.534-2.832-25.119-5.97-27.125-.35 3.875-.106 8.186-1.218 12.114-2.617 9.255-5.817 18.349-8.899 27.468-3.35 9.912-6.832 19.779-10.257 29.666 16.092-9.539 24.935-23.618 26.344-42.123z"/></svg><svg viewBox="0 0 128 128" id="social--codepan"><path d="M125.571 39.926l-58.5-39c-1.997-1.23-4.128-1.24-6.142 0l-58.5 39C.929 40.926 0 42.712 0 44.497v39c0 1.786.929 3.572 2.429 4.571l58.5 39.006c1.996 1.229 4.128 1.24 6.142 0l58.5-39.006c1.5-.999 2.429-2.785 2.429-4.57v-39c0-1.786-.929-3.572-2.429-4.572zm-56.07-24.144l43.07 28.715-19.214 12.858L69.5 41.425V15.784zm-11.001 0v25.644L34.642 57.354 15.428 44.498 58.5 15.782zm-47.5 39l13.786 9.215L11 73.212v-18.43zm47.5 57.43L15.428 83.497 34.642 70.64 58.5 86.569v25.643zM64 76.997l-19.428-13 19.428-13 19.428 13-19.428 13zm5.5 35.215V86.569L93.357 70.64l19.214 12.857-43.07 28.715zm47.5-39l-13.786-9.215L117 54.783v18.429z"/></svg><svg viewBox="0 0 128 128" id="social--github"><path fill-rule="evenodd" clip-rule="evenodd" d="M64 5.103c-33.347 0-60.388 27.035-60.388 60.388 0 26.682 17.303 49.317 41.297 57.303 3.017.56 4.125-1.31 4.125-2.905 0-1.44-.056-6.197-.082-11.243-16.8 3.653-20.345-7.125-20.345-7.125-2.747-6.98-6.705-8.836-6.705-8.836-5.48-3.748.413-3.67.413-3.67 6.063.425 9.257 6.223 9.257 6.223 5.386 9.23 14.127 6.562 17.573 5.02.542-3.903 2.107-6.568 3.834-8.076-13.413-1.525-27.514-6.704-27.514-29.843 0-6.593 2.36-11.98 6.223-16.21-.628-1.52-2.695-7.662.584-15.98 0 0 5.07-1.623 16.61 6.19C53.7 35 58.867 34.327 64 34.304c5.13.023 10.3.694 15.127 2.033 11.526-7.813 16.59-6.19 16.59-6.19 3.287 8.317 1.22 14.46.593 15.98 3.872 4.23 6.215 9.617 6.215 16.21 0 23.194-14.127 28.3-27.574 29.796 2.167 1.874 4.097 5.55 4.097 11.183 0 8.08-.07 14.583-.07 16.572 0 1.607 1.088 3.49 4.148 2.897 23.98-7.994 41.263-30.622 41.263-57.294C124.388 32.14 97.35 5.104 64 5.104z"/><path d="M26.484 91.806c-.133.3-.605.39-1.035.185-.44-.196-.685-.605-.543-.906.13-.31.603-.395 1.04-.188.44.197.69.61.537.91zm2.446 2.729c-.287.267-.85.143-1.232-.28-.396-.42-.47-.983-.177-1.254.298-.266.844-.14 1.24.28.394.426.472.984.17 1.255zm2.382 3.477c-.37.258-.976.017-1.35-.52-.37-.538-.37-1.183.01-1.44.373-.258.97-.025 1.35.507.368.545.368 1.19-.01 1.452zm3.261 3.361c-.33.365-1.036.267-1.552-.23-.527-.487-.674-1.18-.343-1.544.336-.366 1.045-.264 1.564.23.527.486.686 1.18.333 1.543zm4.5 1.951c-.147.473-.825.688-1.51.486-.683-.207-1.13-.76-.99-1.238.14-.477.823-.7 1.512-.485.683.206 1.13.756.988 1.237zm4.943.361c.017.498-.563.91-1.28.92-.723.017-1.308-.387-1.315-.877 0-.503.568-.91 1.29-.924.717-.013 1.306.387 1.306.88zm4.598-.782c.086.485-.413.984-1.126 1.117-.7.13-1.35-.172-1.44-.653-.086-.498.422-.997 1.122-1.126.714-.123 1.354.17 1.444.663zm0 0"/></svg><svg viewBox="0 0 20 20" id="social--instagram" xmlns="http://www.w3.org/2000/svg"><path d="M13.75 0h-7.5A6.25 6.25 0 000 6.25v7.5A6.25 6.25 0 006.25 20h7.5A6.25 6.25 0 0020 13.75v-7.5A6.25 6.25 0 0013.75 0zm4.375 13.75a4.38 4.38 0 01-4.375 4.375h-7.5a4.38 4.38 0 01-4.375-4.375v-7.5A4.38 4.38 0 016.25 1.875h7.5a4.38 4.38 0 014.375 4.375v7.5z"/><path d="M10 5a5 5 0 100 10 5 5 0 000-10zm0 8.125A3.13 3.13 0 016.875 10 3.129 3.129 0 0110 6.875 3.129 3.129 0 0113.125 10 3.13 3.13 0 0110 13.125zM15.375 5.291a.666.666 0 100-1.332.666.666 0 000 1.332z"/></svg><svg viewBox="0 0 128 128" id="social--linkedin"><path d="M116 3H12a8.91 8.91 0 00-9 8.8v104.42a8.91 8.91 0 009 8.78h104a8.93 8.93 0 009-8.81V11.77A8.93 8.93 0 00116 3zM39.17 107H21.06V48.73h18.11zm-9-66.21a10.5 10.5 0 1110.49-10.5 10.5 10.5 0 01-10.54 10.48zM107 107H88.89V78.65c0-6.75-.12-15.44-9.41-15.44s-10.87 7.36-10.87 15V107H50.53V48.73h17.36v8h.24c2.42-4.58 8.32-9.41 17.13-9.41C103.6 47.28 107 59.35 107 75z"/></svg><svg viewBox="0 0 30 30" id="social--telegram" xmlns="http://www.w3.org/2000/svg"><path d="M15 30c8.286 0 15-6.714 15-15S23.286 0 15 0 0 6.714 0 15s6.714 15 15 15zM6.864 14.675l14.462-5.576c.671-.243 1.258.163 1.04 1.178h.002l-2.463 11.6c-.183.823-.671 1.023-1.355.636l-3.75-2.764-1.809 1.742c-.2.2-.368.369-.756.369l.266-3.816 6.95-6.279c.303-.266-.067-.416-.466-.151l-8.589 5.407-3.702-1.155c-.804-.255-.822-.803.17-1.191z"/></svg></svg>