<svg width="19" height="18" viewBox="0 0 19 18" fill="none" xmlns="http://www.w3.org/2000/svg">
<g id="little-facebook-logo-svgrepo-com 1" clip-path="url(#clip0_7_193)">
<path id="Vector" d="M12.7747 0H11.8006C9.09314 0 6.89049 2.2027 6.89049 4.91015V6.98239H5.22624C5.05487 6.98239 4.91589 7.12136 4.91589 7.29273V9.77549C4.91589 9.94686 5.05487 10.0858 5.22624 10.0858H6.89037V17.6897C6.89037 17.861 7.02934 18 7.20071 18H9.68347C9.85485 18 9.99382 17.861 9.99382 17.6897V10.0858H12.4633C12.6347 10.0858 12.7736 9.94686 12.7736 9.77549V7.29273C12.7736 7.12136 12.6347 6.98239 12.4633 6.98239H9.99382V4.91015C9.99382 3.91394 10.8043 3.10345 11.8005 3.10345H12.7746C12.9459 3.10345 13.0849 2.96448 13.0849 2.7931V0.310345C13.085 0.138972 12.9461 0 12.7747 0Z" fill="#344265"/>
</g>
<defs>
<clipPath id="clip0_7_193">
<rect width="18" height="18" fill="white" transform="translate(0.00170898 0.000244141)"/>
</clipPath>
</defs>
</svg>
