<svg width="19" height="18" viewBox="0 0 19 18" fill="none" xmlns="http://www.w3.org/2000/svg">
<g id="instagram">
<path id="instagram_2" d="M9.00267 0.000305176C6.5584 0.000305176 6.25165 0.010993 5.29164 0.0546809C4.3335 0.0985564 3.67949 0.250245 3.10724 0.47281C2.51529 0.702688 2.01316 1.01019 1.51291 1.51063C1.01228 2.01089 0.704776 2.51302 0.474148 3.10477C0.251021 3.67722 0.0991445 4.33141 0.056019 5.28917C0.0130811 6.24918 0.00183105 6.55612 0.00183105 9.0004C0.00183105 11.4447 0.0127063 11.7505 0.0562068 12.7105C0.10027 13.6686 0.251959 14.3226 0.474336 14.8949C0.704401 15.4868 1.0119 15.989 1.51235 16.4892C2.01241 16.9899 2.51454 17.2981 3.10611 17.528C3.67874 17.7506 4.33294 17.9022 5.29089 17.9461C6.2509 17.9898 6.55746 18.0005 9.00155 18.0005C11.446 18.0005 11.7518 17.9898 12.7118 17.9461C13.67 17.9022 14.3247 17.7506 14.8974 17.528C15.4891 17.2981 15.9905 16.9899 16.4906 16.4892C16.9912 15.989 17.2987 15.4868 17.5293 14.8951C17.7506 14.3226 17.9025 13.6684 17.9475 12.7107C17.9906 11.7507 18.0018 11.4447 18.0018 9.0004C18.0018 6.55612 17.9906 6.24937 17.9475 5.28936C17.9025 4.33123 17.7506 3.67722 17.5293 3.10496C17.2987 2.51302 16.9912 2.01089 16.4906 1.51063C15.9899 1.01 15.4893 0.7025 14.8968 0.47281C14.323 0.250245 13.6687 0.0985564 12.7105 0.0546809C11.7505 0.010993 11.4449 0.000305176 8.99986 0.000305176H9.00267ZM8.19529 1.6222C8.43492 1.62182 8.7023 1.6222 9.00267 1.6222C11.4057 1.6222 11.6905 1.63082 12.6395 1.67395C13.517 1.71407 13.9932 1.8607 14.3105 1.98389C14.7305 2.14702 15.0299 2.34202 15.3447 2.65702C15.6597 2.97202 15.8547 3.27203 16.0182 3.69203C16.1414 4.00891 16.2882 4.48516 16.3282 5.36267C16.3713 6.31143 16.3807 6.59644 16.3807 8.99834C16.3807 11.4002 16.3713 11.6852 16.3282 12.634C16.2881 13.5115 16.1414 13.9878 16.0182 14.3046C15.8551 14.7246 15.6597 15.0237 15.3447 15.3385C15.0297 15.6535 14.7307 15.8485 14.3105 16.0117C13.9936 16.1354 13.517 16.2817 12.6395 16.3218C11.6907 16.3649 11.4057 16.3743 9.00267 16.3743C6.59946 16.3743 6.31465 16.3649 5.36589 16.3218C4.48838 16.2813 4.01212 16.1347 3.69468 16.0115C3.27468 15.8483 2.97467 15.6533 2.65967 15.3383C2.34467 15.0233 2.14967 14.7241 1.98616 14.3039C1.86298 13.987 1.71616 13.5108 1.67622 12.6332C1.6331 11.6845 1.62447 11.3995 1.62447 8.99609C1.62447 6.59269 1.6331 6.30918 1.67622 5.36042C1.71635 4.48291 1.86298 4.00666 1.98616 3.68941C2.14929 3.2694 2.34467 2.9694 2.65967 2.6544C2.97467 2.33939 3.27468 2.14439 3.69468 1.98089C4.01194 1.85714 4.48838 1.71089 5.36589 1.67057C6.19615 1.63307 6.5179 1.62182 8.19529 1.61995V1.6222ZM13.8068 3.11659C13.2106 3.11659 12.7268 3.59978 12.7268 4.19622C12.7268 4.79248 13.2106 5.27624 13.8068 5.27624C14.4031 5.27624 14.8869 4.79248 14.8869 4.19622C14.8869 3.59997 14.4031 3.11621 13.8068 3.11621V3.11659ZM9.00267 4.37848C6.45021 4.37848 4.38075 6.44793 4.38075 9.0004C4.38075 11.5529 6.45021 13.6214 9.00267 13.6214C11.5551 13.6214 13.6238 11.5529 13.6238 9.0004C13.6238 6.44793 11.555 4.37848 9.00249 4.37848H9.00267ZM9.00267 6.00037C10.6594 6.00037 12.0027 7.34344 12.0027 9.0004C12.0027 10.6572 10.6594 12.0004 9.00267 12.0004C7.34572 12.0004 6.00264 10.6572 6.00264 9.0004C6.00264 7.34344 7.34572 6.00037 9.00267 6.00037Z" fill="#344265"/>
</g>
</svg>
