<svg width="19" height="18" viewBox="0 0 19 18" fill="none" xmlns="http://www.w3.org/2000/svg">
<g id="pinterest-4 1" clip-path="url(#clip0_7_197)">
<path id="Vector" d="M2.03796 6.4612C2.03796 5.70535 2.19633 4.9549 2.51487 4.21165C2.8334 3.46839 3.28871 2.77733 3.8826 2.14206C4.47648 1.50679 5.25572 0.99029 6.22213 0.594369C7.18853 0.198449 8.25932 0.000488281 9.43449 0.000488281C11.3421 0.000488281 12.9078 0.58897 14.1315 1.76414C15.3553 2.9393 15.9672 4.32502 15.9672 5.9213C15.9672 7.97289 15.4489 9.66815 14.4105 11.0053C13.3721 12.3424 12.0314 13.0119 10.3883 13.0119C9.8484 13.0119 9.3409 12.8859 8.8676 12.634C8.39429 12.382 8.06136 12.0761 7.8688 11.7161L7.14894 14.5596C7.08955 14.7881 7.01037 15.0185 6.91499 15.2524C6.81961 15.4864 6.71343 15.7113 6.60005 15.9273C6.48667 16.1433 6.3715 16.3466 6.25812 16.5392C6.14474 16.7317 6.02957 16.9117 5.91619 17.0791C5.80281 17.2464 5.70383 17.3886 5.61925 17.502C5.53467 17.6154 5.45728 17.7143 5.3853 17.7989L5.27732 17.9429C5.24132 17.9915 5.19273 18.0095 5.13335 17.9969C5.07396 17.9843 5.03796 17.9483 5.02537 17.8889C5.02537 17.8763 5.01637 17.7935 4.99837 17.637C4.98038 17.4804 4.96238 17.3166 4.94438 17.1421C4.92639 16.9675 4.90839 16.7425 4.89039 16.4672C4.8724 16.1918 4.867 15.9237 4.8724 15.6664C4.8778 15.409 4.89579 15.1229 4.92639 14.8115C4.95698 14.5002 5.00197 14.2122 5.06136 13.9477C5.19273 13.3844 5.63724 11.5056 6.39309 8.31482C6.29771 8.12226 6.21853 7.89191 6.15914 7.62196C6.09975 7.35202 6.06916 7.13246 6.06916 6.96509L6.05116 6.69515C6.05116 5.9267 6.24552 5.28783 6.63604 4.77853C7.02657 4.26923 7.49627 4.01369 8.04876 4.01369C8.49327 4.01369 8.83701 4.16126 9.08356 4.4546C9.33011 4.74794 9.45248 5.11686 9.45248 5.56138C9.45248 5.83672 9.40209 6.17685 9.29951 6.57817C9.19693 6.97949 9.06196 7.442 8.89459 7.96389C8.72723 8.48579 8.60665 8.90871 8.53467 9.23264C8.41409 9.77253 8.52027 10.2404 8.8496 10.6364C9.17894 11.0323 9.61985 11.2302 10.1723 11.2302C11.1207 11.2302 11.9036 10.6939 12.5209 9.61956C13.1381 8.54518 13.4477 7.24764 13.4477 5.72334C13.4477 4.55898 13.0698 3.60877 12.3139 2.87091C11.5581 2.13306 10.5017 1.76414 9.14654 1.76414C7.63485 1.76414 6.40749 2.25004 5.46628 3.22184C4.52507 4.19365 4.05356 5.35802 4.05356 6.71314C4.05356 7.51758 4.28212 8.19425 4.73742 8.74674C4.89399 8.9267 4.94078 9.11926 4.8814 9.32262C4.858 9.38201 4.82201 9.52058 4.77342 9.73654C4.72483 9.9525 4.68883 10.0911 4.66544 10.1505C4.64204 10.2818 4.58086 10.37 4.48547 10.4114C4.39009 10.4528 4.28212 10.451 4.16154 10.4024C3.45428 10.1145 2.92339 9.61956 2.56886 8.9177C2.21433 8.21584 2.03796 7.39701 2.03796 6.4612Z" fill="#344265"/>
</g>
<defs>
<clipPath id="clip0_7_197">
<rect width="18" height="18" fill="white" transform="translate(0.00170898 0.000244141)"/>
</clipPath>
</defs>
</svg>
