<svg width="19" height="18" viewBox="0 0 19 18" fill="none" xmlns="http://www.w3.org/2000/svg">
<g id="youtube">
<path id="Combined Shape" d="M9.05926 2.24799C9.06565 2.248 9.07256 2.24802 9.07996 2.24803L9.15961 2.24828C10.0841 2.25168 14.7699 2.28564 16.0332 2.62529C16.8077 2.83302 17.4176 3.44519 17.6246 4.22227C17.7385 4.6492 17.8179 5.21665 17.8733 5.80025L17.8841 5.91714C17.8928 6.01468 17.9008 6.11243 17.9083 6.20982L17.9169 6.32649C17.9909 7.35486 17.9995 8.31719 18.0005 8.52773L18.0006 8.55614C18.0006 8.55846 18.0006 8.56226 18.0006 8.56226V8.57821C18.0006 8.57821 18.0006 8.58201 18.0006 8.58433L18.0005 8.61274C17.9994 8.83124 17.9902 9.85937 17.9083 10.9307L17.899 11.0477L17.8892 11.1648C17.8335 11.809 17.7499 12.4486 17.6246 12.9182C17.4176 13.6953 16.8077 14.3076 16.0332 14.5152C14.7278 14.8663 9.76794 14.8909 9.07996 14.8926L9.02698 14.8927C9.02263 14.8927 9.01881 14.8927 9.01552 14.8927L8.99392 14.8927C8.99392 14.8927 8.98895 14.8927 8.98566 14.8927L8.92123 14.8926C8.57355 14.8917 7.13485 14.885 5.62817 14.8333L5.43553 14.8264C5.40339 14.8252 5.37124 14.824 5.33909 14.8228L5.14624 14.8152L4.95383 14.807C3.70563 14.7522 2.51555 14.6624 1.96809 14.5152C1.19361 14.3076 0.583752 13.6953 0.376761 12.9182C0.251361 12.4486 0.167761 11.809 0.112028 11.1648L0.102199 11.0477L0.0929651 10.9307C0.0139752 9.89833 0.00250899 8.90607 0.000844531 8.63975L0.000645634 8.60163C0.000631676 8.59819 0.000620044 8.59503 0.000610352 8.59215V8.54832C0.000620044 8.54544 0.000631676 8.54228 0.000645634 8.53884L0.000844531 8.50072C0.00235196 8.25954 0.011899 7.42295 0.0723639 6.50036L0.0801903 6.38462C0.0815399 6.36527 0.0829124 6.34589 0.0843082 6.32649L0.0929651 6.20982C0.100417 6.11243 0.10847 6.01468 0.117172 5.91714L0.12793 5.80025C0.183307 5.21665 0.262761 4.6492 0.376761 4.22227C0.583752 3.44519 1.19361 2.83302 1.96809 2.62529C2.51555 2.47811 3.70563 2.38833 4.95383 2.33356L5.14624 2.32541L5.33909 2.31779C5.37124 2.31657 5.40339 2.31536 5.43553 2.31418L5.62817 2.30733C7.03868 2.25891 8.38961 2.24994 8.84158 2.24828L8.92123 2.24803C8.92863 2.24802 8.93553 2.248 8.94193 2.24799H9.05926ZM7.20065 5.86058V11.2799L11.877 8.57038L7.20065 5.86058Z" fill="#344265"/>
</g>
</svg>
